<?xml version="1.0" encoding="utf-8"?>
<!-- Generator: Adobe Illustrator 16.0.0, SVG Export Plug-In . SVG Version: 6.00 Build 0)  -->
<!DOCTYPE svg PUBLIC "-//W3C//DTD SVG 1.1//EN" "http://www.w3.org/Graphics/SVG/1.1/DTD/svg11.dtd">
<svg version="1.1" id="Layer_1" xmlns="http://www.w3.org/2000/svg" xmlns:xlink="http://www.w3.org/1999/xlink" x="0px" y="0px"
	 width="14px" height="24px" viewBox="0 0 14 24" enable-background="new 0 0 14 24" xml:space="preserve">
<path fill="#F27E63" d="M9.5,15H11v9l-3.958-3L3,24v-9h1.463c0.83,0.582,1.381,1,2.537,1C7.975,16,8.88,15.585,9.5,15z M7,3
	C4.795,3,3,4.794,3,7s1.795,4,4,4c2.206,0,4-1.794,4-4S9.206,3,7,3z M13.926,8.277C13.977,8.424,14,8.574,14,8.723
	c0,0.448-0.223,0.883-0.615,1.155c-1.256,0.87-1.09,0.651-1.562,2.067c-0.198,0.591-0.771,0.99-1.414,0.99h-0.005
	c-1.549-0.006-1.278-0.088-2.527,0.789C7.615,13.908,7.308,14,7,14s-0.615-0.092-0.876-0.275c-1.249-0.877-0.98-0.793-2.528-0.789
	H3.592c-0.645,0-1.216-0.398-1.413-0.99c-0.473-1.416-0.311-1.197-1.562-2.066C0.222,9.605,0,9.171,0,8.723
	c0-0.148,0.024-0.299,0.074-0.445c0.483-1.41,0.484-1.139,0-2.555C0.024,5.576,0,5.426,0,5.277c0-0.449,0.222-0.883,0.616-1.156
	c1.251-0.868,1.089-0.648,1.562-2.066c0.197-0.592,0.769-0.99,1.413-0.99h0.004C5.14,1.068,4.866,1.159,6.123,0.273
	C6.385,0.091,6.692,0,7,0s0.615,0.091,0.876,0.273c1.249,0.879,0.979,0.795,2.528,0.791h0.004c0.645,0,1.216,0.398,1.414,0.99
	c0.473,1.416,0.307,1.196,1.562,2.066C13.777,4.395,14,4.828,14,5.277c0,0.147-0.023,0.299-0.074,0.445
	C13.443,7.132,13.441,6.861,13.926,8.277z M12,7c0-2.761-2.238-5-5-5C4.239,2,2,4.239,2,7s2.239,5,5,5C9.762,12,12,9.761,12,7z"/>
</svg>
